<?xml version="1.0" encoding="UTF-8"?>
<svg width="363px" height="93px" viewBox="0 0 363 93" version="1.1" xmlns="http://www.w3.org/2000/svg" xmlns:xlink="http://www.w3.org/1999/xlink">
    <!-- Generator: Sketch 40.2 (33826) - http://www.bohemiancoding.com/sketch -->
    <title>Artspark Grey</title>
    <desc>Created with Sketch.</desc>
    <defs></defs>
    <g id="Final" stroke="none" stroke-width="1" fill="none" fill-rule="evenodd">
        <path d="M314.9,22.5042854 C313.903723,22.4784469 312.586612,22.5510213 311.679199,22.6725464 C305.330261,23.5228271 299.2,26.1 297,30.6 L297,22.8 L281.7,22.8 L281.7,71 L297,71 L297,54.2 C297,42.2977126 302.5,38 310.9,38 C312.48863,38 313.56221,38.1144555 314.9,38.3866588 L314.9,71 L330.2,71 L330.2,63.2508106 L334.967165,57.1068621 L345.154432,71 L362.391561,71 L343.91302,45.6081871 L361.773303,22.8 L345.154432,22.8 L330.2,41.7574926 L330.2,0 L314.9,8 L314.9,22.5042854 Z M93,22.5072481 L93,8 L108.2,0.5 L108.2,22.8 L119.2,22.8 L119.2,37.2 L108.2,37.2 L108.2,51.4 C108.2,58.5 111,59.6 114.8,59.6 C116.7,59.6 118.671037,59.6 120.3,59.6 L120.3,71.2369484 C118.011615,71.5340777 114.6,71.8 110.1,71.8 C102.9,71.8 93,70.9 93,54.8 L93,38.407196 C91.6151261,38.1202011 90.5280156,38 88.9,38 C80.5,38 75,42.2977126 75,54.2 L75,71 L59.7,71 L59.7,22.8 L75,22.8 L75,30.6 C77.2,26.1 83.3302612,23.5228271 89.6791992,22.6725464 C90.6173149,22.5469094 91.9933243,22.4735917 93,22.5072481 Z M222.75,40.1355536 C225.261648,29.2204222 233.877708,21.5999756 245.5,21.5999756 C251.7,21.5999756 259.9,25.2999756 262.2,29.6999756 L262.2,22.7999756 L277.5,22.7999756 L277.5,70.9999756 L262.2,70.9999756 L262.2,64.1999756 C259.9,68.5999756 251.7,72.1999756 245.5,72.1999756 C233.877708,72.1999756 225.261648,64.5795289 222.75,53.6643976 C220.238352,64.5795289 211.622292,72.1999756 200,72.1999756 C193.8,72.1999756 185.6,68.5999756 183.3,64.1999756 L183.3,84.9999756 L168,92.9999756 L168,22.7999756 L183.3,22.7999756 L183.3,29.6999756 C185.6,25.2999756 193.8,21.5999756 200,21.5999756 C211.622292,21.5999756 220.238352,29.2204222 222.75,40.1355536 Z M40.2,22.8 L40.2,29.7 C37.9,25.3 29.7,21.6 23.5,21.6 C9.6,21.6 0,32.5 0,46.9 C0,61.3 9.6,72.2 23.5,72.2 C29.7,72.2 37.9,68.6 40.2,64.2 L40.2,71 L55.5,71 L55.5,22.8 L40.2,22.8 Z M25.1000061,59.2 C18.2000061,59.2 13.6000061,53.6 13.6000061,46.9 C13.6000061,40.3 18.2000061,34.6 25.1000061,34.6 C32.0000061,34.6 36.6000061,40.3 36.6000061,46.9 C36.6000061,53.6 32.0000061,59.2 25.1000061,59.2 Z M141.583324,53.369084 C149.820759,55.0935115 151.872357,55.0422881 151.872357,57.6289293 C151.872357,60.311372 149.169593,60.5771249 145.541199,60.5771249 C138.67667,60.5771249 133.98047,58.3470953 130.744334,54.5150342 L123,64.6195183 C127.314847,69.9844038 135.209119,72.2 144.62333,72.2 C157.665935,72.2 166.074091,68.5503033 166.074091,57.6289293 C166.074091,47.569769 158.646581,44.3637405 150.114953,42.5435115 C141.387195,40.7232824 139.392881,39.6274809 139.392881,37.2324427 C139.392881,35.1248092 141.520546,33.9262773 145.541199,33.9262773 C150.738628,33.9262773 155.508511,35.3164122 158.254323,38.2862595 L165.478701,28.963112 C161.163854,24.6520433 154.920123,22 145.996235,22 C133.14976,22 124.749258,27.5564885 124.749258,37.2324427 C124.749258,47.6748092 134.326536,51.9320611 141.583324,53.369084 Z M198.499994,34.6 C205.299994,34.6 209.899994,40.2 209.899994,46.9 C209.899994,53.6 205.299994,59.2 198.499994,59.2 C191.499994,59.2 186.899994,53.6 186.899994,46.9 C186.899994,40.2 191.499994,34.6 198.499994,34.6 Z M247.099976,59.2 C240.199976,59.2 235.599976,53.6 235.599976,46.9 C235.599976,40.3 240.199976,34.6 247.099976,34.6 C253.999976,34.6 258.599976,40.3 258.599976,46.9 C258.599976,53.6 253.999976,59.2 247.099976,59.2 Z" id="Artspark-Grey" fill="#4A4A4A"></path>
    </g>
</svg>